<svg width="24" height="24" viewBox="0 0 24 24" fill="none" xmlns="http://www.w3.org/2000/svg">
<path d="M13.793 21.2871C14.4258 21.2871 14.874 20.7422 15.1992 19.8984L20.9561 4.86035C21.1143 4.45605 21.2021 4.0957 21.2021 3.79688C21.2021 3.22559 20.8506 2.87402 20.2793 2.87402C19.9805 2.87402 19.6201 2.96191 19.2158 3.12012L4.09863 8.91211C3.36035 9.19336 2.78906 9.6416 2.78906 10.2832C2.78906 11.0918 3.4043 11.3643 4.24805 11.6191L8.99414 13.0605C9.55664 13.2363 9.86426 13.2188 10.251 12.8672L19.8838 3.8584C19.998 3.75293 20.1299 3.77051 20.2266 3.84961C20.3145 3.9375 20.3232 4.06934 20.2178 4.18359L11.2354 13.8604C10.9014 14.2207 10.875 14.5195 11.042 15.1084L12.4395 19.749C12.7031 20.6367 12.9756 21.2871 13.793 21.2871Z" fill="#292929"/>
</svg>
