<svg width="41" height="39" viewBox="0 0 41 39" fill="none" xmlns="http://www.w3.org/2000/svg">
<g filter="url(#filter0_d_0_73)">
<path fill-rule="evenodd" clip-rule="evenodd" d="M27.4441 5.10292C27.6116 5.18545 27.7526 5.3132 27.8512 5.47173C27.9499 5.63026 28.0021 5.81323 28.0021 5.99992V9.96492L28.8921 10.5589C29.541 10.9915 30.0731 11.5776 30.4411 12.2652C30.8091 12.9528 31.0016 13.7206 31.0016 14.5004C31.0016 15.2803 30.8091 16.0481 30.4411 16.7357C30.0731 17.4233 29.541 18.0094 28.8921 18.4419L28.0021 19.0349V21.9999C28.0022 22.185 27.9509 22.3666 27.854 22.5243C27.757 22.682 27.6182 22.8096 27.4529 22.8931C27.2877 22.9765 27.1025 23.0125 26.9181 22.9969C26.7336 22.9814 26.5571 22.9149 26.4081 22.8049L26.4021 22.7999L26.3841 22.7869L26.3111 22.7329L26.0321 22.5329C25.7941 22.3649 25.4581 22.1309 25.0721 21.8729C24.2881 21.3509 23.3401 20.7619 22.5771 20.4049C21.1891 19.7549 19.7421 19.2719 18.6331 18.9499C18.2353 18.8344 17.8352 18.7267 17.4331 18.6269C17.0459 19.2562 16.9046 20.0062 17.0362 20.7333C17.1677 21.4603 17.563 22.1133 18.1461 22.5669C19.3791 23.5259 18.7021 25.4999 17.1421 25.4999H14.0021C13.8063 25.5001 13.6147 25.4428 13.4512 25.335C13.2876 25.2273 13.1593 25.0739 13.0821 24.8939L12.7021 24.0039C11.8822 22.0912 11.8399 19.9343 12.5841 17.9909L12.6291 17.8729C11.4992 17.5978 10.5094 16.918 9.84688 15.9622C9.18438 15.0065 8.89518 13.841 9.03401 12.6864C9.17284 11.5318 9.73006 10.4681 10.6002 9.69664C11.4704 8.92516 12.5932 8.49941 13.7561 8.49992H17.0021C17.0288 8.49986 17.0555 8.50086 17.0821 8.50292H17.0841L17.1021 8.50492L17.1891 8.50892C17.7371 8.52867 18.2857 8.51598 18.8321 8.47092C19.9061 8.38292 21.2901 8.14892 22.6061 7.58092C23.3611 7.25592 24.2961 6.67592 25.0761 6.14892C25.4904 5.86794 25.8981 5.57753 26.2991 5.27792L26.3711 5.22392L26.3891 5.20992L26.3931 5.20692C26.5412 5.09323 26.718 5.02324 26.9038 5.00486C27.0895 4.98648 27.2767 5.02045 27.4441 5.10292ZM16.0021 10.4999H13.7561C13.0604 10.5001 12.3905 10.7636 11.881 11.2375C11.3716 11.7113 11.0604 12.3605 11.01 13.0544C10.9596 13.7483 11.1737 14.4356 11.6093 14.9782C12.0449 15.5207 12.6697 15.8782 13.3581 15.9789L14.1431 16.0929L16.0021 16.3509V10.4999ZM18.0021 16.7079C18.3231 16.7879 18.7291 16.8959 19.1921 17.0309C20.3581 17.3689 21.9111 17.8859 23.4261 18.5939C24.2651 18.9869 25.2291 19.5819 26.0021 20.0909V7.93592C25.2311 8.44992 24.2601 9.04592 23.3981 9.41792C21.8151 10.1009 20.1981 10.3659 18.9971 10.4649C18.6251 10.4949 18.2901 10.5109 18.0021 10.5169V16.7069V16.7079ZM15.3701 18.2829L14.6521 18.1829L14.4521 18.7059C13.8937 20.1635 13.9253 21.7813 14.5401 23.2159L14.6611 23.4999H16.2311C15.6152 22.7973 15.2082 21.9362 15.0562 21.0142C14.9042 20.0922 15.0123 19.1461 15.3701 18.2829ZM28.0021 16.6149C28.3147 16.3582 28.5665 16.0353 28.7394 15.6696C28.9122 15.3039 29.0019 14.9044 29.0019 14.4999C29.0019 14.0954 28.9122 13.6959 28.7394 13.3302C28.5665 12.9645 28.3147 12.6417 28.0021 12.3849V16.6149Z" fill="#292929"/>
</g>
<defs>
<filter id="filter0_d_0_73" x="0" y="0" width="40.0016" height="38.4999" filterUnits="userSpaceOnUse" color-interpolation-filters="sRGB">
<feFlood flood-opacity="0" result="BackgroundImageFix"/>
<feColorMatrix in="SourceAlpha" type="matrix" values="0 0 0 0 0 0 0 0 0 0 0 0 0 0 0 0 0 0 127 0" result="hardAlpha"/>
<feOffset dy="4"/>
<feGaussianBlur stdDeviation="4.5"/>
<feColorMatrix type="matrix" values="0 0 0 0 0 0 0 0 0 0 0 0 0 0 0 0 0 0 0.11 0"/>
<feBlend mode="normal" in2="BackgroundImageFix" result="effect1_dropShadow_0_73"/>
<feBlend mode="normal" in="SourceGraphic" in2="effect1_dropShadow_0_73" result="shape"/>
</filter>
</defs>
</svg>
